{"title":"The.Internship.2013.CAM.NEW.SOURCE.XViD-VAiN","uid":8730518,"size":1266871424,"categoryP":"video","categoryS":"movies","magnet":"?xt=urn:btih:3b78e73dd6513e39427d646625b632d9a786066d&amp;dn=The.Internship.2013.CAM.NEW.SOURCE.XViD-VAiN&amp;tr=udp%3A%2F%2Ftracker.openbittorrent.com%3A80&amp;tr=udp%3A%2F%2Fopen.demonii.com%3A1337&amp;tr=udp%3A%2F%2Ftracker.coppersurfer.tk%3A6969&amp;tr=udp%3A%2F%2Fexodus.desync.com%3A6969","seeders":2,"leechers":0,"uploader":"xxxlavalxxx","files":-1,"time":1374596173,"description":" &lt;a href=&quot;\nhttp://www.imdb.com/title/tt2234155/&quot; rel=&quot;nofollow&quot; target=&quot;_NEW&quot;&gt;\nhttp://www.imdb.com/title/tt2234155/&lt;/a&gt;\n\n\n\nTwo salesmen whose careers have been torpedoed by the digital age find their way into a coveted internship at Google, where they must compete with a group of young, tech-savvy geniuses for a shot at employment. \n\n\n\nDirector:\n Shawn Levy \n\nWriters:\n Vince Vaughn (screenplay), Jared Stern (screenplay) \n\nStars:\n Vince Vaughn, Owen Wilson, Rose Byrne \n\nGenres:\n  Comedy \n\nCountry:\n USA \n\nLanguage:\n English \n\n\n\n\n Format                           : AVI\n Format/Info                      : Audio Video Interleave\n File size                        : 1.17 GiB\n Duration                         : 1h 55mn\n Overall bit rate                 : 1 453 Kbps\n Writing application              : VirtualDubMod 1.5.10.2 (build 2540/release)\n Writing library                  : VirtualDubMod build 2540/release\n\n Video\n ID                               : 0\n Format                           : MPEG-4 Visual\n Format profile                   : Advanced Simple@L5\n Format settings, BVOP            : 1\n Format settings, QPel            : No\n Format settings, GMC             : No warppoints\n Format settings, Matrix          : Default (MPEG)\n Codec ID                         : XVID\n Codec ID/Hint                    : XviD\n Duration                         : 1h 55mn\n Bit rate                         : 1 313 Kbps\n Width                            : 688 pixels\n Height                           : 280 pixels\n Display aspect ratio             : 2.457\n Frame rate                       : 29.970 fps\n Color space                      : YUV\n Chroma subsampling               : 4:2:0\n Bit depth                        : 8 bits\n Scan type                        : Progressive\n Compression mode                 : Lossy\n Bits/(Pixel*Frame)               : 0.227\n Stream size                      : 1.06 GiB (90%)\n Writing library                  : XviD 1.2.1 (UTC 2008-12-04)\n\n Audio\n ID                               : 1\n Format                           : MPEG Audio\n Format version                   : Version 1\n Format profile                   : Layer 3\n Mode                             : Joint stereo\n Mode extension                   : MS Stereo\n Codec ID                         : 55\n Codec ID/Hint                    : MP3\n Duration                         : 1h 55mn\n Bit rate mode                    : Constant\n Bit rate                         : 128 Kbps\n Channel(s)                       : 2 channels\n Sampling rate                    : 48.0 KHz\n Compression mode                 : Lossy\n Stream size                      : 105 MiB (9%)\n Alignment                        : Aligned on interleaves\n Interleave, duration             : 33 ms (1.00 video frame)\n Interleave, preload duration     : 504 ms\n\n\n\n\n\n\n E N C O D E R S . N O T E S . . .       \n\n\n SOURCE......:  Greatness vobs [thanx]\n\n\n SAMPLE......: Yes \n ADDED NOTE..: pretty good sors. thanks for the hook up and vobs. \n\n\n\n\nscreens\n\n\n    &lt;a href=&quot;\thttp://addpix.net/viewer.php?file=90157088827251928019.jpg&quot; rel=&quot;nofollow&quot; target=&quot;_NEW&quot;&gt;\thttp://addpix.net/viewer.php?file=90157088827251928019.jpg&lt;/a&gt;\n    &lt;a href=&quot;\thttp://addpix.net/viewer.php?file=13274941101341826941.jpg&quot; rel=&quot;nofollow&quot; target=&quot;_NEW&quot;&gt;\thttp://addpix.net/viewer.php?file=13274941101341826941.jpg&lt;/a&gt;\n    &lt;a href=&quot;\thttp://addpix.net/viewer.php?file=20896332138588908368.jpg&quot; rel=&quot;nofollow&quot; target=&quot;_NEW&quot;&gt;\thttp://addpix.net/viewer.php?file=20896332138588908368.jpg&lt;/a&gt;\n    &lt;a href=&quot;\thttp://addpix.net/viewer.php?file=98951580087684557340.jpg&quot; rel=&quot;nofollow&quot; target=&quot;_NEW&quot;&gt;\thttp://addpix.net/viewer.php?file=98951580087684557340.jpg&lt;/a&gt;","torrent":{"xt":"urn:btih:3b78e73dd6513e39427d646625b632d9a786066d","amp;dn":"The.Internship.2013.CAM.NEW.SOURCE.XViD-VAiN","amp;tr":["udp%3A%2F%2Ftracker.openbittorrent.com%3A80","udp%3A%2F%2Fopen.demonii.com%3A1337","udp%3A%2F%2Ftracker.coppersurfer.tk%3A6969","udp%3A%2F%2Fexodus.desync.com%3A6969"],"infoHash":"3b78e73dd6513e39427d646625b632d9a786066d","infoHashBuffer":{"type":"Buffer","data":[59,120,231,61,214,81,62,57,66,125,100,102,37,182,50,217,167,134,6,109]},"announce":[],"urlList":[]}}